<svg width="23" height="16" viewBox="0 0 23 16" fill="#EDEEF5"  xmlns="http://www.w3.org/2000/svg">
<path d="M14.881 7.71725C12.8535 6.63376 8.92773 4.59766 8.92773 4.59766L14.1618 8.1156C14.1622 8.1156 13.2083 8.64443 14.881 7.71725Z"/>
<path d="M9.30947 15.6887C5.09819 15.6112 3.65983 15.5414 2.77573 15.3593C2.17758 15.2382 1.65778 14.9695 1.27666 14.5798C0.982091 14.2848 0.747835 13.8348 0.566091 13.2104C0.410194 12.6901 0.349476 12.2573 0.262912 11.2001C0.130399 8.81404 0.098809 6.86327 0.262912 4.68358C0.398296 3.47989 0.463937 2.05097 1.36322 1.21732C1.78783 0.82717 2.28178 0.576093 2.83645 0.472299C3.70291 0.307786 7.3944 0.177734 11.2159 0.177734C15.0289 0.177734 18.7286 0.307786 19.5958 0.472299C20.2888 0.60235 20.9386 0.992093 21.3201 1.49466C22.1407 2.78532 22.155 4.39025 22.2383 5.64563C22.2728 6.24379 22.2728 9.6403 22.2383 10.2385C22.1087 12.2225 22.0045 12.9244 21.7099 13.6522C21.5277 14.1117 21.3722 14.3541 21.1031 14.6229C20.681 15.0364 20.1429 15.3114 19.5606 15.4114C15.9162 15.6854 12.8217 15.7449 9.30947 15.6887ZM14.8902 7.71661C12.8627 6.63312 10.9214 5.6284 8.93696 4.5884V10.8104C11.0252 9.67517 13.2266 8.63517 14.8988 7.70799L14.8902 7.71661Z"/>
</svg>
